<?xml version="1.0" encoding="UTF-8"?>
<!DOCTYPE svg PUBLIC "-//W3C//DTD SVG 1.1//EN" "http://www.w3.org/Graphics/SVG/1.1/DTD/svg11.dtd">
<!-- Creator: CorelDRAW X7 -->
<svg xmlns="http://www.w3.org/2000/svg" xml:space="preserve" version="1.1" style="shape-rendering:geometricPrecision; text-rendering:geometricPrecision; image-rendering:optimizeQuality; fill-rule:evenodd; clip-rule:evenodd"
viewBox="0 500 600 120000" height="200px" width="200px"
preserveAspectRatio="xMinYMin"
 xmlns:xlink="http://www.w3.org/1999/xlink">
 <defs>
  <style type="text/css">
   <![CDATA[
    .fil3 {fill:#1F1A17}
    .fil2 {fill:#DA251D}
    .fil0 {fill:#FEFEFE}
    .fil5 {fill:#1F1A17;fill-rule:nonzero}
    .fil4 {fill:#2D3480;fill-rule:nonzero}
    .fil1 {fill:url(#id0)}
   ]]>
  </style>
  <linearGradient id="id0" gradientUnits="userSpaceOnUse" x1="41189.8" y1="66803.8" x2="54828" y2="66803.8">
   <stop offset="0" style="stop-opacity:1; stop-color:#0093DD"/>
   <stop offset="0.431373" style="stop-opacity:1; stop-color:#1455A6"/>
   <stop offset="1" style="stop-opacity:1; stop-color:#28166F"/>
  </linearGradient>
 </defs>
 <g id="Layer_x0020_1">
  <metadata id="CorelCorpID_0Corel-Layer"/>
  <g id="_117437616">
   <path id="_116970776" class="fil0" d="M2175184 728060l11 -635 -1944 398 1933 237zm6770 -6217l-479 55 -464 3450 943 -3505zm406 3456c-3307,2482 -4283,3575 -7598,3723 -1325,60 -6462,-230 -7269,-1086l-373 -395c-687,-730 -10,-5565 673,-6518l615 5412 339 -1920 1977 -1864c-197,-1182 -574,-3935 534,-4980l1186 -1117c1451,-1368 2488,-1190 3885,-1424l2235 2372c-1287,-328 -4170,-2040 -5352,-926 -1068,1006 -913,1216 -1605,2259 629,1081 461,1281 1467,2348 1006,1068 1216,912 2349,1719l2976 -2345 -296 -507 828 188 -1691 2989c-2666,446 -3080,1055 -5671,-1280l-2348 2921 622 1887 -1932 9 -87 708 5384 685 103 -738 -2852 -164 314 -509 1356 -521 4685 480 1148 -1920c-39,488 24,1470 -441,1909 -906,853 -586,299 -1954,1095l387 519 4277 -3628 -1500 128c2610,-2573 1893,-6840 1437,-9564 -803,-298 -1013,-284 -1885,-1209l-1874 -1676 -6900 -277 -175 648 1992 2638 -395 372 -1863 -1976c110,-521 232,-1710 442,-1908 1158,-1091 6682,-465 8137,-177l1021 2015 2403 804 14 6935 597 6 35 -6907 -5251 -4009c1967,-1061 4067,1469 6238,3258l-344 11518z"/>
   <g>
    <g>
     <polygon id="_116970704" class="fil1" points="44633,58190 41190,75462 43716,75452 45388,67660 52095,67660 53042,64775 45949,64775 46749,61432 53666,61432 54828,58145 "/>
     <path id="_116970632" class="fil2" d="M37949 53465l18215 -9 -924 3055 -15331 0 -398 2068 4231 0 -3280 16885 -2845 -14 2740 -13972c0,0 -4020,-55 -4020,0 0,54 1612,-8013 1612,-8013z"/>
    </g>
    <g>
     <path id="_116970536" class="fil3" d="M44203 84623c-9560,-1509 -19898,-12589 -16792,-22936 -2152,-10338 10839,-20846 19493,-24548l-3977 -8230c-1905,414 -3410,1208 -5177,1934l1142 3670c-1544,706 -3020,1537 -4405,2491l-3203 -2337c-1524,1133 -2949,2394 -4255,3767l2030 3397c-1143,1300 -2174,2700 -3074,4187l-3914 -841c-905,1627 -1676,3339 -2299,5119l3269 2301c-508,1661 -863,3389 -1069,5161l-3944 828c-74,937 -111,1885 -105,2844 6,922 52,1835 132,2739l3962 780c229,1769 606,3491 1135,5147l-3268 2362c640,1769 1425,3467 2343,5081l3952 -902c919,1476 1968,2861 3127,4148l-2023 3484c1315,1352 2744,2591 4271,3702l3241 -2429c1398,935 2884,1748 4437,2435l-869 5633c1646,348 2830,528 4750,792l1090 -9779 0 0z"/>
     <path id="_117438216" class="fil3" d="M49905 93070c-15544,-1569 -27685,-14765 -27685,-30811 0,-16045 12141,-29241 27685,-30810l0 6355c-12047,1413 -21398,11659 -21398,24085 0,12427 9351,22672 21398,24085l0 7096 0 0z"/>
    </g>
    <path id="_117438120" class="fil4" d="M8698 98129l0 10221c0,875 42,1496 131,1858 85,367 270,610 547,737 278,123 760,208 1446,254l0 902 -8096 0 0 -902c663,-46 1126,-135 1395,-262 266,-127 440,-370 525,-732 81,-363 123,-980 123,-1855l0 -10221 -397 0c-736,0 -1295,62 -1669,182 -378,119 -671,289 -883,508 -316,405 -598,1161 -848,2271l-972 0c31,-613 58,-1122 85,-1538 27,-413 50,-798 73,-1157 23,-358 42,-682 62,-971 19,-289 34,-656 50,-1099l725 0c166,247 324,405 474,474 150,66 389,100 721,100l9230 0c285,0 489,-34 609,-108 119,-69 281,-227 486,-466l709 0c8,247 19,509 31,790 12,278 31,660 54,1149 27,490 62,995 96,1515 39,521 66,933 81,1242l-1018 69c-308,-1230 -624,-2032 -948,-2405 -347,-371 -1103,-556 -2267,-556l-555 0zm7580 10225l0 -7707c0,-864 -39,-1481 -112,-1847 -77,-362 -228,-605 -451,-721 -228,-115 -617,-200 -1165,-254l0 -926 10954 0c7,166 34,575 84,1226 47,652 108,1531 174,2638l-1014 77c-235,-1114 -521,-1839 -860,-2179 -331,-354 -1118,-532 -2359,-532l-397 0c-332,0 -552,12 -660,39 -108,27 -181,89 -216,181 -34,96 -50,293 -50,594l0 4507 1165 0c705,0 1195,-35 1461,-108 266,-70 447,-224 543,-455 93,-235 185,-686 274,-1357l1029 0 0 5532 -1029 0c-89,-767 -181,-1284 -274,-1553 -96,-266 -273,-440 -536,-525 -266,-81 -755,-123 -1468,-123l-1165 0 0 3817c0,655 27,1129 81,1415 50,285 178,478 382,574 278,135 821,204 1627,204 1210,0 2028,-231 2452,-690 382,-397 759,-1199 1130,-2405l1014 158c-58,617 -182,1380 -363,2286 -177,910 -328,1534 -439,1881l-11779 0 0 -902c625,-46 1072,-131 1334,-254 262,-124 436,-370 513,-733 81,-366 120,-987 120,-1858zm25118 -4881l0 8786 -1986 0 -8563 -11034 -46 0 0 4303c0,2020 62,3508 181,4472 66,401 274,690 617,871 339,182 895,290 1654,328l0 902 -5760 0 0 -902c1053,-46 1635,-443 1739,-1199 119,-964 181,-2452 181,-4472l0 -4303c0,-655 -12,-1118 -35,-1384 -23,-266 -69,-497 -138,-694 -74,-196 -186,-397 -336,-597 -285,-401 -871,-644 -1762,-725l0 -926 5116 0 7703 9724 47 0 0 -3150c0,-1997 -62,-3481 -181,-4461 -62,-408 -267,-701 -617,-875 -347,-177 -899,-281 -1654,-312l0 -926 5895 0 0 926c-594,23 -1038,127 -1330,312 -297,181 -479,474 -544,875 -120,980 -181,2464 -181,4461zm2957 4133l1018 -305c196,559 478,1142 848,1747 366,605 833,1126 1388,1561 559,432 1187,648 1885,648 401,0 763,-89 1087,-266 320,-177 575,-440 760,-790 185,-351 277,-771 277,-1261 0,-663 -196,-1218 -586,-1666 -393,-447 -964,-829 -1719,-1145l-347 -169c-1215,-544 -2194,-1165 -2938,-1866 -744,-702 -1118,-1616 -1118,-2738 0,-1388 486,-2533 1457,-3439 972,-906 2329,-1357 4075,-1357 748,0 1454,89 2125,270 308,93 574,170 798,235 220,66 358,104 409,120 92,867 262,2082 509,3643l-1015 158c-304,-925 -693,-1689 -1175,-2294 -482,-601 -1142,-902 -1978,-902 -579,0 -1057,197 -1438,594 -382,393 -571,879 -571,1449 0,540 197,1007 586,1400 393,389 991,763 1797,1118l509 224c782,347 1465,728 2047,1145 586,420 1049,937 1392,1557 343,625 512,1354 512,2198 0,956 -239,1808 -721,2560 -481,756 -1175,1345 -2074,1773 -898,428 -1924,644 -3076,644 -860,0 -1693,-131 -2495,-389 -717,-247 -1203,-428 -1457,-548 -23,-165 -81,-474 -170,-925 -92,-455 -204,-1006 -339,-1654 -135,-651 -224,-1095 -262,-1330zm22161 -8617l0 4719 1581 0c709,0 1195,-35 1465,-108 266,-69 447,-216 539,-428 97,-216 189,-632 278,-1249l1018 0 0 5186 -1018 0c-89,-694 -181,-1161 -278,-1404 -92,-239 -273,-397 -536,-474 -262,-73 -751,-112 -1468,-112l-1581 0 0 3231c0,679 19,1184 61,1519 43,336 132,598 266,779 135,185 332,316 586,385 259,74 648,128 1176,166l0 902 -7722 0 0 -902c540,-46 921,-131 1145,-254 224,-127 370,-370 447,-740 74,-371 112,-988 112,-1855l0 -7703c0,-864 -38,-1481 -112,-1847 -77,-362 -223,-605 -447,-728 -224,-120 -605,-201 -1145,-247l0 -926 11169 0c8,166 39,679 93,1543 58,859 108,1654 154,2375l-1018 69c-208,-1122 -497,-1866 -856,-2225 -166,-181 -443,-316 -833,-401 -385,-88 -894,-131 -1519,-131l-1095 0c-158,0 -266,12 -320,39 -57,27 -96,92 -115,193 -19,100 -27,312 -27,628zm6666 -2090l7452 0 0 926c-539,46 -925,127 -1152,247 -224,123 -374,366 -452,728 -73,366 -111,983 -111,1851l0 4765c0,1666 277,2949 836,3852 555,906 1350,1357 2383,1357 775,0 1438,-224 1985,-671 552,-451 964,-1118 1246,-2013 277,-890 416,-1962 416,-3215l0 -1411c0,-1889 -62,-3323 -181,-4303 -58,-408 -266,-701 -617,-875 -347,-177 -898,-281 -1654,-312l0 -926 5849 0 0 926c-571,23 -1003,127 -1296,316 -297,189 -470,478 -520,871 -127,926 -193,2360 -193,4303l0 1808c0,2475 -555,4334 -1662,5567 -501,555 -1152,991 -1947,1300 -794,308 -1607,462 -2444,462 -1920,0 -3373,-416 -4368,-1253 -602,-505 -1049,-1195 -1334,-2074 -285,-875 -428,-1997 -428,-3358l0 -5120c0,-864 -39,-1481 -112,-1847 -77,-362 -231,-605 -470,-728 -235,-120 -644,-201 -1226,-247l0 -926zm18525 11455l0 -7707c0,-864 -39,-1481 -112,-1847 -77,-362 -227,-605 -451,-721 -227,-115 -617,-200 -1164,-254l0 -926 10953 0c8,166 35,575 85,1226 46,652 108,1531 173,2638l-1014 77c-235,-1114 -520,-1839 -859,-2179 -332,-354 -1118,-532 -2360,-532l-397 0c-332,0 -551,12 -659,39 -108,27 -181,89 -216,181 -35,96 -50,293 -50,594l0 4507 1164 0c706,0 1195,-35 1461,-108 266,-70 448,-224 544,-455 92,-235 185,-686 274,-1357l1029 0 0 5532 -1029 0c-89,-767 -182,-1284 -274,-1553 -96,-266 -274,-440 -536,-525 -266,-81 -756,-123 -1469,-123l-1164 0 0 3817c0,655 27,1129 81,1415 50,285 177,478 381,574 278,135 822,204 1627,204 1211,0 2028,-231 2452,-690 382,-397 760,-1199 1130,-2405l1014 158c-58,617 -181,1380 -362,2286 -178,910 -328,1534 -440,1881l-11778 0 0 -902c624,-46 1072,-131 1334,-254 262,-124 435,-370 513,-733 80,-366 119,-987 119,-1858zm17064 -7703l0 8031c0,655 27,1125 81,1411 50,285 177,478 382,574 277,135 821,204 1627,204 1114,0 1850,-223 2213,-667 466,-551 848,-1322 1141,-2317l995 170c-77,490 -212,1211 -413,2159 -200,948 -339,1577 -424,1885l-11474 0 0 -902c617,-46 1057,-131 1315,-254 262,-124 432,-370 509,-733 81,-366 119,-987 119,-1858l0 -7703c0,-868 -38,-1485 -111,-1847 -77,-366 -228,-609 -451,-725 -228,-116 -617,-200 -1165,-254l0 -926 7507 0 0 926c-579,46 -991,127 -1242,250 -247,120 -412,359 -489,721 -81,363 -120,980 -120,1855z"/>
    <path id="_117438048" class="fil3" d="M49905 84808c-11406,-1407 -20240,-11133 -20240,-22919 0,-11786 8834,-21512 20240,-22919l0 1695c-10572,1397 -18735,10447 -18735,21401 0,10954 8163,20004 18735,21401l0 1341 0 0z"/>
    <path id="_117437976" class="fil2" d="M54416 92532c6303,-706 11564,-3653 14797,-9613 9383,-27065 -27165,-53963 -1543,-82919 -15478,42700 19769,65936 2103,35691 17122,10312 20403,32287 7511,46943 -8543,10043 -22872,11252 -22868,9898l0 0z" />
    <path id="_117437904" class="fil2" d="M66424 83971c-1514,2230 -4290,4882 -5716,5056 12348,-18191 -8584,-36251 -8894,-55027 -117,-7079 1725,-11535 6518,-18595 -2,61 -2271,7096 -2505,8523 -1652,10112 335,16732 4534,25299 4486,9154 12037,22619 6063,34744z"/>
    <path id="_117437832" class="fil5" d="M6150 118533c0,388 -134,722 -404,1004 -296,312 -690,467 -1184,467 -170,0 -369,-43 -596,-129 -227,-87 -357,-129 -390,-129 -112,0 -181,86 -207,258l-385 0 -226 -1849 345 41c125,372 299,671 523,899 256,255 549,382 877,382 204,0 373,-67 508,-202 135,-134 202,-303 202,-502 0,-42 -13,-117 -39,-228 -79,-270 -309,-532 -690,-786 -638,-422 -970,-643 -997,-663 -342,-303 -512,-656 -512,-1056 0,-408 128,-735 384,-985 257,-248 582,-372 977,-372 144,0 294,30 448,87 155,56 318,115 489,172 59,0 103,-16 133,-47 29,-31 57,-91 84,-180l345 -32 197 1819 -414 -21c-86,-362 -234,-658 -444,-890 -210,-233 -457,-350 -740,-350 -177,0 -325,50 -444,150 -118,100 -177,243 -177,431 0,172 79,330 237,475 78,69 233,177 463,322 645,413 1042,697 1194,849 296,289 443,645 443,1065zm8000 -3343c-250,0 -423,29 -518,88 -95,58 -143,136 -143,232l0 2314c0,530 -46,916 -138,1157 -132,351 -398,627 -799,827 -263,130 -575,196 -937,196 -671,0 -1157,-166 -1460,-496 -302,-331 -454,-861 -454,-1591l0 -2407c0,-131 -51,-217 -153,-258 -101,-42 -251,-62 -448,-62l0 -393 2180 0 0 393c-237,0 -400,27 -489,82 -89,55 -133,135 -133,238l0 2469c0,523 82,895 247,1116 164,220 444,330 838,330 526,0 878,-186 1056,-558 98,-206 147,-554 147,-1043l0 -2314c0,-96 -39,-169 -118,-217 -112,-69 -293,-103 -542,-103l0 -393 1864 0 0 393zm6529 1002c0,540 -194,948 -582,1220 -328,233 -766,350 -1311,350l-188 0c-65,0 -131,0 -197,0 -53,0 -89,0 -109,0l0 1426c0,103 43,184 129,242 85,59 246,88 483,88l0 382 -2190 0 0 -382c244,0 408,-29 493,-88 86,-58 129,-139 129,-242l0 -3678c0,-103 -41,-183 -124,-238 -82,-55 -231,-82 -448,-82l0 -393 1874 0c618,0 1113,119 1484,355 372,236 557,582 557,1040zm-1006 72c0,-337 -126,-585 -378,-744 -205,-131 -480,-196 -823,-196 -101,0 -155,14 -165,41 -10,28 -15,86 -15,176l0 1694 209 10c364,0 643,-68 835,-206 226,-159 337,-417 337,-775zm7506 -72c0,540 -194,948 -581,1220 -329,233 -767,350 -1312,350l-188 0c-66,0 -131,0 -197,0 -53,0 -89,0 -108,0l0 1426c0,103 42,184 128,242 85,59 246,88 483,88l0 382 -2190 0 0 -382c244,0 408,-29 494,-88 85,-58 128,-139 128,-242l0 -3678c0,-103 -41,-183 -124,-238 -82,-55 -231,-82 -448,-82l0 -393 1874 0c618,0 1113,119 1484,355 372,236 557,582 557,1040zm-1006 72c0,-337 -126,-585 -378,-744 -205,-131 -480,-196 -823,-196 -101,0 -155,14 -165,41 -10,28 -14,86 -14,176l0 1694 208 10c364,0 643,-68 835,-206 226,-159 337,-417 337,-775zm7950 2097l-444 1539 -3955 0 0 -361c250,0 418,-29 503,-88 86,-58 128,-141 128,-244l0 -3695c0,-131 -55,-219 -167,-260 -112,-42 -267,-62 -464,-62l0 -393 2180 0 0 393c-230,0 -388,29 -473,88 -86,58 -129,137 -129,234l0 3696c0,76 45,123 134,140 88,17 235,26 438,26 651,0 1084,-76 1297,-228 214,-149 390,-401 528,-754l424 -31zm7556 -3182c-250,35 -470,148 -661,341 -79,76 -211,252 -395,527l-956 1529 0 1612c0,96 55,175 167,237 112,62 303,93 572,93l0 393 -2387 0 0 -393c277,0 462,-27 558,-82 95,-55 143,-138 143,-248l5 -1533 -844 -1288c-368,-557 -552,-840 -552,-847 -184,-227 -401,-341 -651,-341l0 -382 2200 0 0 382 -326 0c-118,0 -177,24 -177,74 0,71 19,149 59,233 6,15 29,53 69,117l887 1395 868 -1426c27,-50 56,-100 89,-148 33,-71 40,-131 20,-181 -13,-27 -36,-46 -69,-53 -33,-7 -122,-11 -266,-11l-138 0 0 -382 1785 0 0 382zm6174 3354c0,388 -135,722 -404,1004 -296,312 -691,467 -1184,467 -171,0 -370,-43 -596,-129 -227,-87 -357,-129 -390,-129 -112,0 -181,86 -207,258l-385 0 -227 -1849 345 41c125,372 300,671 523,899 257,255 549,382 878,382 204,0 373,-67 508,-202 135,-134 202,-303 202,-502 0,-42 -13,-117 -39,-228 -79,-270 -309,-532 -691,-786 -637,-422 -970,-643 -996,-663 -342,-303 -513,-656 -513,-1056 0,-408 128,-735 385,-985 256,-248 582,-372 976,-372 145,0 295,30 449,87 155,56 318,115 488,172 60,0 104,-16 134,-47 29,-31 57,-91 83,-180l346 -32 197 1819 -414 -21c-86,-362 -234,-658 -444,-890 -211,-233 -457,-350 -740,-350 -177,0 -325,50 -444,150 -118,100 -177,243 -177,431 0,172 79,330 236,475 79,69 234,177 464,322 644,413 1042,697 1193,849 296,289 444,645 444,1065zm7289 -161l-404 1528 -3975 0 0 -371c250,0 418,-30 503,-88 86,-59 128,-140 128,-243l0 -3688c0,-131 -56,-217 -167,-258 -112,-42 -267,-62 -464,-62l0 -393 3975 0 0 1302 -375 -11c-52,-227 -131,-402 -237,-526 -124,-145 -282,-217 -473,-217l-1124 0c-125,0 -188,55 -188,165l0 1436 858 0c237,0 411,-38 523,-114 151,-103 227,-296 227,-578l385 0 0 1963 -385 0c0,-276 -67,-460 -202,-553 -135,-93 -318,-140 -548,-140l-858 0 0 1672c0,112 20,167 59,167l918 0c342,0 595,-41 759,-125 257,-133 470,-403 641,-815l424 -51zm7230 1528l-1292 -10 -1667 -2252 -227 0 0 1550c0,103 43,184 129,242 85,59 246,88 483,88l0 382 -2160 0 0 -382c237,0 394,-27 473,-82 79,-55 119,-138 119,-248l0 -3678c0,-131 -51,-217 -153,-258 -102,-42 -248,-62 -439,-62l0 -393 1973 0c637,0 1127,119 1469,357 342,237 513,587 513,1048 0,358 -115,654 -345,889 -204,206 -477,354 -819,444l1246 1599c110,121 207,209 290,262 82,55 217,95 407,122l0 382zm-1785 -3688c0,-309 -90,-533 -271,-671 -181,-138 -426,-207 -735,-207l-197 0c-86,0 -140,12 -163,36 -23,25 -35,85 -35,181l0 1581c454,0 793,-66 1016,-196 257,-152 385,-393 385,-724zm9400 -1033c-178,0 -307,40 -390,119 -82,79 -149,195 -202,346 -125,310 -315,792 -572,1447 -92,234 -293,754 -602,1559 -171,448 -342,892 -513,1333l-207 0 -1746 -4018c-92,-231 -151,-371 -177,-419 -138,-244 -339,-367 -602,-367l0 -382 2101 0 0 382c-230,0 -375,9 -434,26 -59,17 -88,59 -88,121 0,69 42,208 128,416 59,140 118,276 177,408l921 2120 874 -2336c33,-69 69,-161 109,-274 39,-114 59,-209 59,-284 0,-83 -46,-136 -138,-160 -92,-25 -217,-37 -375,-37l0 -382 1677 0 0 382zm4971 4721l-2338 0 0 -382c277,0 461,-29 553,-88 92,-58 138,-139 138,-242l0 -3678c0,-103 -46,-183 -138,-238 -92,-55 -276,-82 -553,-82l0 -393 2338 0 0 393c-276,0 -462,27 -557,82 -96,55 -143,135 -143,238l0 3678c0,96 49,175 148,237 98,62 282,93 552,93l0 382zm7200 -940c-256,324 -560,579 -912,765 -352,186 -708,279 -1070,279 -730,0 -1328,-231 -1795,-692 -487,-483 -730,-1133 -730,-1953 0,-778 235,-1417 705,-1916 470,-499 1074,-749 1810,-749 184,0 375,29 572,88 197,58 401,118 612,180 72,0 130,-17 172,-49 43,-35 84,-107 124,-219l335 0 69 1921 -385 -20c-105,-414 -279,-741 -522,-982 -244,-241 -546,-361 -908,-361 -513,0 -896,196 -1149,589 -253,392 -380,916 -380,1570 0,530 122,985 365,1363 283,434 671,651 1164,651 329,0 615,-58 858,-175 244,-117 513,-324 809,-620l256 330zm7004 -588l-405 1528 -3975 0 0 -371c250,0 418,-30 503,-88 86,-59 128,-140 128,-243l0 -3688c0,-131 -55,-217 -167,-258 -112,-42 -267,-62 -464,-62l0 -393 3975 0 0 1302 -375 -11c-52,-227 -131,-402 -236,-526 -125,-145 -283,-217 -474,-217l-1124 0c-125,0 -188,55 -188,165l0 1436 858 0c237,0 411,-38 523,-114 151,-103 227,-296 227,-578l385 0 0 1963 -385 0c0,-276 -67,-460 -202,-553 -135,-93 -317,-140 -548,-140l-858 0 0 1672c0,112 20,167 60,167l917 0c342,0 595,-41 759,-125 257,-133 470,-403 641,-815l425 -51zm6085 161c0,388 -135,722 -404,1004 -296,312 -691,467 -1184,467 -171,0 -370,-43 -596,-129 -227,-87 -357,-129 -390,-129 -112,0 -181,86 -207,258l-385 0 -227 -1849 345 41c125,372 300,671 523,899 257,255 549,382 878,382 204,0 373,-67 508,-202 135,-134 202,-303 202,-502 0,-42 -13,-117 -39,-228 -79,-270 -309,-532 -691,-786 -638,-422 -970,-643 -996,-663 -342,-303 -513,-656 -513,-1056 0,-408 128,-735 385,-985 256,-248 582,-372 976,-372 145,0 295,30 449,87 155,56 317,115 488,172 60,0 104,-16 134,-47 29,-31 57,-91 83,-180l346 -32 197 1819 -414 -21c-86,-362 -234,-658 -444,-890 -211,-233 -457,-350 -740,-350 -178,0 -326,50 -444,150 -118,100 -177,243 -177,431 0,172 78,330 236,475 79,69 234,177 464,322 644,413 1042,697 1193,849 296,289 444,645 444,1065zm7309 -172l-444 1539 -3955 0 0 -361c250,0 418,-29 503,-88 85,-58 128,-141 128,-244l0 -3695c0,-131 -56,-219 -167,-260 -112,-42 -267,-62 -464,-62l0 -393 2180 0 0 393c-230,0 -388,29 -474,88 -85,58 -128,137 -128,234l0 3696c0,76 45,123 133,140 89,17 235,26 439,26 651,0 1084,-76 1297,-228 214,-149 390,-401 528,-754l424 -31zm1411 1095c0,159 -50,290 -148,393 -99,103 -224,155 -375,155 -158,0 -283,-52 -375,-155 -92,-103 -138,-234 -138,-393 0,-144 48,-274 143,-387 95,-114 219,-171 370,-171 144,0 268,54 370,161 102,106 153,239 153,397zm4803 -1095l-444 1539 -3955 0 0 -361c250,0 417,-29 503,-88 85,-58 128,-141 128,-244l0 -3695c0,-131 -56,-219 -167,-260 -112,-42 -267,-62 -464,-62l0 -393 2180 0 0 393c-230,0 -388,29 -474,88 -85,58 -128,137 -128,234l0 3696c0,76 44,123 133,140 89,17 235,26 439,26 651,0 1083,-76 1297,-228 214,-149 390,-401 528,-754l424 -31zm1410 1095c0,159 -49,290 -147,393 -99,103 -224,155 -375,155 -158,0 -283,-52 -375,-155 -92,-103 -138,-234 -138,-393 0,-144 48,-274 143,-387 95,-114 219,-171 370,-171 144,0 268,54 370,161 102,106 152,239 152,397zm5060 -496c-256,324 -560,579 -912,765 -352,186 -708,279 -1070,279 -730,0 -1328,-231 -1795,-692 -487,-483 -730,-1133 -730,-1953 0,-778 235,-1417 705,-1916 470,-499 1074,-749 1810,-749 184,0 375,29 572,88 197,58 401,118 612,180 72,0 130,-17 172,-49 43,-35 84,-107 124,-219l335 0 69 1921 -385 -20c-105,-414 -279,-741 -522,-982 -244,-241 -546,-361 -908,-361 -513,0 -896,196 -1149,589 -253,392 -380,916 -380,1570 0,530 122,985 365,1363 283,434 671,651 1164,651 329,0 615,-58 858,-175 244,-117 513,-324 809,-620l256 330z"/>
   </g>
  </g>
 </g>
</svg>
